# Blender v2.72 (sub 0) OBJ File: 'alpha-plane.blend'
# www.blender.org
mtllib alpha-plane.mtl
o Cube
v -0.637013 -2.500603 0.229736
v -0.637013 -2.500603 -1.770264
v 1.362987 -2.500603 -1.770264
v 1.362987 -2.500603 0.229736
v -0.637013 -0.500603 0.229736
v -0.637013 -0.500603 -1.770264
v 1.362987 -0.500603 -1.770264
v 1.362987 -0.500603 0.229736
vn -1.000000 0.000000 0.000000
vn 0.000000 0.000000 -1.000000
vn 1.000000 0.000000 0.000000
vn 0.000000 0.000000 1.000000
vn 0.000000 -1.000000 0.000000
vn 0.000000 1.000000 0.000000
usemtl None
s off
f 5//1 6//1 2//1 1//1
f 6//2 7//2 3//2 2//2
f 7//3 8//3 4//3 3//3
f 8//4 5//4 1//4 4//4
f 1//5 2//5 3//5 4//5
f 8//6 7//6 6//6 5//6
o Plane
v -1.000000 0.000000 1.000000
v 1.000000 0.000000 1.000000
v -1.000000 0.000000 -1.000000
v 1.000000 0.000000 -1.000000
v -1.000000 0.000000 0.000000
v 0.000000 0.000000 1.000000
v 1.000000 0.000000 0.000000
v 0.000000 0.000000 -1.000000
v 0.000000 0.000000 0.000000
v -1.000000 0.000000 0.500000
v 0.500000 0.000000 1.000000
v 1.000000 0.000000 -0.500000
v -0.500000 0.000000 -1.000000
v -1.000000 0.000000 -0.500000
v -0.500000 0.000000 1.000000
v 1.000000 0.000000 0.500000
v 0.500000 0.000000 -1.000000
v 0.000000 0.000000 -0.500000
v 0.000000 0.000000 0.500000
v -0.500000 0.000000 0.000000
v 0.500000 0.000000 0.000000
v 0.500000 0.000000 -0.500000
v -0.500000 0.000000 -0.500000
v -0.500000 0.000000 0.500000
v 0.500000 0.000000 0.500000
v -1.000000 0.000000 0.750000
v 0.750000 0.000000 1.000000
v 1.000000 0.000000 -0.750000
v -0.750000 0.000000 -1.000000
v -1.000000 0.000000 -0.250000
v -0.250000 0.000000 1.000000
v 1.000000 0.000000 0.250000
v 0.250000 0.000000 -1.000000
v 0.000000 0.000000 -0.750000
v 0.000000 0.000000 0.250000
v -0.750000 0.000000 0.000000
v 0.250000 0.000000 0.000000
v -1.000000 0.000000 0.250000
v 0.250000 0.000000 1.000000
v 1.000000 0.000000 -0.250000
v -0.250000 0.000000 -1.000000
v -1.000000 0.000000 -0.750000
v -0.750000 0.000000 1.000000
v 1.000000 0.000000 0.750000
v 0.750000 0.000000 -1.000000
v 0.000000 0.000000 -0.250000
v 0.000000 0.000000 0.750000
v -0.250000 0.000000 0.000000
v 0.750000 0.000000 0.000000
v 0.500000 0.000000 -0.750000
v 0.500000 0.000000 -0.250000
v 0.250000 0.000000 -0.500000
v 0.750000 0.000000 -0.500000
v -0.500000 0.000000 -0.750000
v -0.500000 0.000000 -0.250000
v -0.750000 0.000000 -0.500000
v -0.250000 0.000000 -0.500000
v -0.500000 0.000000 0.250000
v -0.500000 0.000000 0.750000
v -0.750000 0.000000 0.500000
v -0.250000 0.000000 0.500000
v 0.500000 0.000000 0.250000
v 0.500000 0.000000 0.750000
v 0.250000 0.000000 0.500000
v 0.750000 0.000000 0.500000
v 0.750000 0.000000 -0.750000
v -0.250000 0.000000 -0.750000
v -0.250000 0.000000 0.250000
v 0.750000 0.000000 0.250000
v 0.250000 0.000000 -0.750000
v 0.250000 0.000000 -0.250000
v 0.750000 0.000000 -0.250000
v -0.750000 0.000000 -0.750000
v -0.750000 0.000000 -0.250000
v -0.250000 0.000000 -0.250000
v -0.750000 0.000000 0.250000
v -0.750000 0.000000 0.750000
v -0.250000 0.000000 0.750000
v 0.250000 0.000000 0.250000
v 0.250000 0.000000 0.750000
v 0.750000 0.000000 0.750000
vt 0.874925 0.874925
vt 0.999900 0.874925
vt 0.999900 0.999900
vt 0.874925 0.999900
vt 0.375025 0.874925
vt 0.500000 0.874925
vt 0.500000 0.999900
vt 0.375025 0.999900
vt 0.375025 0.375025
vt 0.500000 0.375025
vt 0.500000 0.500000
vt 0.375025 0.500000
vt 0.874925 0.375025
vt 0.999900 0.375025
vt 0.999900 0.500000
vt 0.874925 0.500000
vt 0.624975 0.874925
vt 0.749950 0.874925
vt 0.749950 0.999900
vt 0.624975 0.999900
vt 0.624975 0.624975
vt 0.749950 0.624975
vt 0.749950 0.749950
vt 0.624975 0.749950
vt 0.874925 0.624975
vt 0.999900 0.624975
vt 0.999900 0.749950
vt 0.874925 0.749950
vt 0.125075 0.874925
vt 0.250050 0.874925
vt 0.250050 0.999900
vt 0.125075 0.999900
vt 0.125075 0.624975
vt 0.250050 0.624975
vt 0.250050 0.749950
vt 0.125075 0.749950
vt 0.375025 0.624975
vt 0.500000 0.624975
vt 0.500000 0.749950
vt 0.375025 0.749950
vt 0.125075 0.375025
vt 0.250050 0.375025
vt 0.250050 0.500000
vt 0.125075 0.500000
vt 0.125075 0.125075
vt 0.250050 0.125075
vt 0.250050 0.250050
vt 0.125075 0.250050
vt 0.375025 0.125075
vt 0.500000 0.125075
vt 0.500000 0.250050
vt 0.375025 0.250050
vt 0.624975 0.375025
vt 0.749950 0.375025
vt 0.749950 0.500000
vt 0.624975 0.500000
vt 0.624975 0.125075
vt 0.749950 0.125075
vt 0.749950 0.250050
vt 0.624975 0.250050
vt 0.874925 0.125075
vt 0.999900 0.125075
vt 0.999900 0.250050
vt 0.874925 0.250050
vt 0.000100 0.874925
vt 0.000100 0.999900
vt 0.000100 0.749950
vt 0.000100 0.624975
vt 0.000100 0.500000
vt 0.000100 0.375025
vt 0.000100 0.250050
vt 0.000100 0.125075
vt 0.000100 0.000100
vt 0.125075 0.000100
vt 0.250050 0.000100
vt 0.375025 0.000100
vt 0.500000 0.000100
vt 0.624975 0.000100
vt 0.749950 0.000100
vt 0.874925 0.000100
vt 0.999900 0.000100
vn 0.000000 1.000000 0.000000
usemtl AlphaMat
s 1
f 74/1/7 36/2/7 12/3/7 53/4/7
f 75/5/7 42/6/7 16/7/7 49/8/7
f 76/9/7 43/10/7 17/11/7 56/12/7
f 77/13/7 40/14/7 15/15/7 57/16/7
f 78/17/7 58/18/7 25/19/7 41/20/7
f 79/21/7 59/22/7 30/23/7 60/24/7
f 80/25/7 48/26/7 20/27/7 61/28/7
f 81/29/7 62/30/7 21/31/7 37/32/7
f 82/33/7 63/34/7 31/35/7 64/36/7
f 83/37/7 54/38/7 26/39/7 65/40/7
f 84/41/7 66/42/7 28/43/7 44/44/7
f 85/45/7 67/46/7 32/47/7 68/48/7
f 86/49/7 55/50/7 27/51/7 69/52/7
f 87/53/7 70/54/7 29/55/7 45/56/7
f 88/57/7 71/58/7 33/59/7 72/60/7
f 89/61/7 52/62/7 24/63/7 73/64/7
f 58/18/7 74/1/7 53/4/7 25/19/7
f 30/23/7 61/28/7 74/1/7 58/18/7
f 61/28/7 20/27/7 36/2/7 74/1/7
f 62/30/7 75/5/7 49/8/7 21/31/7
f 31/35/7 65/40/7 75/5/7 62/30/7
f 65/40/7 26/39/7 42/6/7 75/5/7
f 66/42/7 76/9/7 56/12/7 28/43/7
f 32/47/7 69/52/7 76/9/7 66/42/7
f 69/52/7 27/51/7 43/10/7 76/9/7
f 70/54/7 77/13/7 57/16/7 29/55/7
f 33/59/7 73/64/7 77/13/7 70/54/7
f 73/64/7 24/63/7 40/14/7 77/13/7
f 42/6/7 78/17/7 41/20/7 16/7/7
f 26/39/7 60/24/7 78/17/7 42/6/7
f 60/24/7 30/23/7 58/18/7 78/17/7
f 54/38/7 79/21/7 60/24/7 26/39/7
f 17/11/7 45/56/7 79/21/7 54/38/7
f 45/56/7 29/55/7 59/22/7 79/21/7
f 59/22/7 80/25/7 61/28/7 30/23/7
f 29/55/7 57/16/7 80/25/7 59/22/7
f 57/16/7 15/15/7 48/26/7 80/25/7
f 50/65/7 81/29/7 37/32/7 11/66/7
f 22/67/7 64/36/7 81/29/7 50/65/7
f 64/36/7 31/35/7 62/30/7 81/29/7
f 38/68/7 82/33/7 64/36/7 22/67/7
f 13/69/7 44/44/7 82/33/7 38/68/7
f 44/44/7 28/43/7 63/34/7 82/33/7
f 63/34/7 83/37/7 65/40/7 31/35/7
f 28/43/7 56/12/7 83/37/7 63/34/7
f 56/12/7 17/11/7 54/38/7 83/37/7
f 46/70/7 84/41/7 44/44/7 13/69/7
f 18/71/7 68/48/7 84/41/7 46/70/7
f 68/48/7 32/47/7 66/42/7 84/41/7
f 34/72/7 85/45/7 68/48/7 18/71/7
f 9/73/7 51/74/7 85/45/7 34/72/7
f 51/74/7 23/75/7 67/46/7 85/45/7
f 67/46/7 86/49/7 69/52/7 32/47/7
f 23/75/7 39/76/7 86/49/7 67/46/7
f 39/76/7 14/77/7 55/50/7 86/49/7
f 43/10/7 87/53/7 45/56/7 17/11/7
f 27/51/7 72/60/7 87/53/7 43/10/7
f 72/60/7 33/59/7 70/54/7 87/53/7
f 55/50/7 88/57/7 72/60/7 27/51/7
f 14/77/7 47/78/7 88/57/7 55/50/7
f 47/78/7 19/79/7 71/58/7 88/57/7
f 71/58/7 89/61/7 73/64/7 33/59/7
f 19/79/7 35/80/7 89/61/7 71/58/7
f 35/80/7 10/81/7 52/62/7 89/61/7
